<svg width="128" height="40" viewBox="0 0 128 40" fill="none" xmlns="http://www.w3.org/2000/svg">
<path fill-rule="evenodd" clip-rule="evenodd" d="M20.0784 40C31.1674 40 40.1569 31.0457 40.1569 20C40.1569 8.9543 31.1674 0 20.0784 0C8.98942 0 0 8.9543 0 20C0 31.0457 8.98942 40 20.0784 40Z" fill="white"/>
<path fill-rule="evenodd" clip-rule="evenodd" d="M22.0981 4.9739C22.3085 5.71074 22.3085 6.51776 22.0981 7.2546C22.028 7.46513 21.8877 7.64057 21.6422 7.71074C20.9058 7.92127 20.0992 7.92127 19.3628 7.71074C19.1523 7.64057 18.977 7.50021 18.9069 7.2546C18.6965 6.51776 18.6965 5.71074 18.9069 4.9739C18.977 4.76337 19.1173 4.58793 19.3628 4.51776C20.0992 4.30723 20.9058 4.30723 21.6422 4.51776C21.8877 4.58793 22.028 4.76337 22.0981 4.9739ZM8.35125 10.9739C9.08769 11.1493 9.78906 11.5704 10.28 12.1318C10.4203 12.3072 10.4904 12.5178 10.4203 12.7283C10.245 13.4651 9.82413 14.1669 9.26303 14.6581C9.08769 14.7985 8.87728 14.8686 8.66687 14.7985C7.93043 14.623 7.22906 14.202 6.7381 13.6406C6.59783 13.4651 6.52769 13.2546 6.59783 13.0441C6.77317 12.3072 7.19399 11.6055 7.75509 11.1142C7.89536 10.9739 8.14084 10.9388 8.35125 10.9739ZM14.4181 6.16688C14.9792 6.6932 15.365 7.39495 15.5403 8.13179C15.5754 8.34232 15.5403 8.58793 15.365 8.72828C14.8389 9.28969 14.1376 9.67565 13.4011 9.85109C13.1907 9.88618 12.9452 9.85109 12.805 9.67565C12.2439 9.14934 11.8581 8.44758 11.6828 7.71074C11.6477 7.50021 11.6828 7.2546 11.8581 7.11425C12.3841 6.55285 13.0855 6.16688 13.8219 5.99144C14.0674 5.95635 14.2778 6.02653 14.4181 6.16688ZM34.3019 13.6757C33.7759 14.2371 33.1096 14.6581 32.3732 14.8335C32.1628 14.9037 31.9173 14.8335 31.777 14.6932C31.2159 14.1669 30.7951 13.5002 30.6197 12.7634C30.5496 12.5528 30.6197 12.3072 30.76 12.1669C31.286 11.6055 31.9523 11.1844 32.6888 11.009C32.8992 10.9388 33.1447 11.009 33.285 11.1493C33.846 11.6757 34.2669 12.3423 34.4422 13.0792C34.5123 13.2897 34.4773 13.5002 34.3019 13.6757ZM29.3573 7.71074C29.1819 8.44758 28.7962 9.14934 28.2351 9.67565C28.0597 9.816 27.8493 9.88618 27.6389 9.85109C26.9025 9.67565 26.2011 9.28969 25.6751 8.72828C25.5348 8.55285 25.4647 8.34232 25.4997 8.13179C25.6751 7.39495 26.0608 6.6932 26.6219 6.16688C26.7973 6.02653 27.0077 5.95635 27.2181 5.99144C27.9545 6.16688 28.6559 6.55285 29.1819 7.11425C29.3222 7.28969 29.3923 7.50021 29.3573 7.71074Z" fill="#EC1C24"/>
<path fill-rule="evenodd" clip-rule="evenodd" d="M21.3613 23.9564C22.6589 21.9915 23.5706 19.7459 23.8863 17.2897C23.8863 17.1845 23.9564 17.1143 24.0265 17.0792C24.0967 17.0441 24.2019 17.0441 24.272 17.1143C25.1838 17.816 26.2008 18.3424 27.323 18.6932C27.4632 18.7283 27.5684 18.8687 27.5334 19.0441C26.9723 21.8511 25.815 24.4476 24.1668 26.6932C24.1317 26.7634 24.0265 26.7985 23.9564 26.8336C23.8512 26.8336 23.781 26.8336 23.7109 26.7634C22.8342 26.0967 22.0627 25.2897 21.3613 24.4476C21.2912 24.3073 21.2561 24.1318 21.3613 23.9564Z" fill="#EC1C24"/>
<path fill-rule="evenodd" clip-rule="evenodd" d="M20.2749 30.3774C16.8382 27.5353 14.3834 23.5704 13.4717 19.0441C13.4366 18.9038 13.5418 18.7634 13.6821 18.6932C14.8043 18.3424 15.8212 17.816 16.733 17.1143C16.8032 17.0441 16.9084 17.0441 16.9785 17.0792C17.0486 17.1143 17.1188 17.1845 17.1188 17.2897C17.6799 21.4652 19.8892 25.1494 23.0454 27.6055C23.1155 27.6757 23.1506 27.7459 23.1506 27.816C23.1506 27.9213 23.1506 27.9915 23.0804 28.0617C22.344 28.9038 21.5725 29.6757 20.7308 30.3774C20.6256 30.5178 20.4152 30.5178 20.2749 30.3774Z" fill="#EC1C24"/>
<path fill-rule="evenodd" clip-rule="evenodd" d="M34.6527 20.5178C35.6346 19.9564 36.1606 18.8336 35.9853 17.7458C35.9853 17.6757 35.9151 17.6055 35.845 17.5704C35.7749 17.5353 35.6697 17.5353 35.5995 17.6055C33.6357 18.8687 31.2861 19.395 28.9716 19.0792C28.8313 19.0441 28.691 19.1494 28.656 19.3248C28.3053 21.0441 27.7442 22.6932 27.0077 24.2371C26.9727 24.3073 26.9727 24.4125 27.0077 24.4827C27.0428 24.5529 27.113 24.623 27.1831 24.6581C29.0417 25.4651 31.0757 25.9564 33.1798 25.9915C33.3201 25.9915 33.4603 25.9213 33.5305 25.7809C34.1968 24.1318 34.6176 22.3774 34.6527 20.5178Z" fill="#EC1C24"/>
<path fill-rule="evenodd" clip-rule="evenodd" d="M23.4657 16.3776C24.2022 16.2723 30.9003 15.0793 28.5156 13.1846C26.5167 11.5706 24.2022 10.3425 21.6422 9.60565C20.8707 9.39512 20.1342 9.39512 19.3627 9.60565C16.8378 10.3425 14.4882 11.5706 12.4893 13.1846C10.1046 15.1144 16.8027 16.2723 17.5392 16.3776C18.0652 17.8162 19.1523 19.7811 20.4849 19.7811C21.8526 19.7811 22.9748 17.8162 23.4657 16.3776Z" fill="#EC1C24"/>
<path fill-rule="evenodd" clip-rule="evenodd" d="M7.5445 25.7458C6.84313 24.1317 6.42231 22.3423 6.38724 20.4826C5.40532 19.9212 4.91436 18.7984 5.0897 17.7107C5.0897 17.6405 5.15984 17.5703 5.22998 17.5353C5.30012 17.5002 5.40532 17.5002 5.47546 17.5703C7.43929 18.8686 9.78888 19.3598 12.1034 19.044C12.2437 19.0089 12.384 19.1142 12.419 19.2896C12.7697 21.0089 13.3308 22.6581 14.0672 24.2019C14.1023 24.2721 14.1023 24.3774 14.0672 24.4475C14.0322 24.5177 13.962 24.5879 13.8919 24.623C12.0333 25.43 9.99929 25.9212 7.89518 25.9563C7.75491 25.9914 7.61464 25.8861 7.5445 25.7458Z" fill="#EC1C24"/>
<path fill-rule="evenodd" clip-rule="evenodd" d="M27.253 34.237C25.2191 35.2195 22.9396 35.7458 20.555 35.7458C20.1692 35.7458 19.7835 35.7458 19.3977 35.7107C19.3276 35.7107 19.2574 35.6756 19.1873 35.6054C19.1522 35.5353 19.1172 35.4651 19.1522 35.3949C20.1692 31.4651 23.7462 28.5879 27.9895 28.5879C29.778 28.5879 30.6547 29.43 30.6547 30.5528C30.6547 31.9563 29.5325 33.1493 27.253 34.237Z" fill="#EC1C24"/>
<path fill-rule="evenodd" clip-rule="evenodd" d="M13.8224 34.2369C15.0147 34.7983 16.3122 35.2545 17.6799 35.5001C17.8553 35.5352 17.9955 35.4299 18.0306 35.2545C18.3462 33.9913 18.9073 32.7983 19.6437 31.7457C19.7489 31.6054 19.7489 31.3948 19.6087 31.2896C17.9605 29.6054 15.6459 28.5527 13.0859 28.5527C11.2974 28.5527 10.4207 29.3948 10.4207 30.5176C10.3857 31.9562 11.5079 33.1492 13.8224 34.2369Z" fill="#EC1C24"/>
<path fill-rule="evenodd" clip-rule="evenodd" d="M92.3634 17.2895H95.5547C95.8352 17.2895 96.1158 17.1492 96.2911 16.9035L100.499 10.4123V16.7983C100.499 17.079 100.71 17.3246 100.99 17.3246H103.866C104.146 17.3246 104.357 17.079 104.357 16.7983V5.07898C104.357 4.79828 104.146 4.55267 103.866 4.55267H100.675C100.394 4.55267 100.114 4.69302 99.9382 4.93863L95.73 11.4299V5.04389C95.73 4.76319 95.5196 4.51758 95.2391 4.51758H92.3634C92.0829 4.51758 91.8725 4.76319 91.8725 5.04389V16.7632C91.8374 17.0439 92.0829 17.2895 92.3634 17.2895Z" fill="white"/>
<path fill-rule="evenodd" clip-rule="evenodd" d="M74.7598 17.2896C79.494 17.2896 83.8425 17.2896 88.5768 17.2896C89.2782 17.2896 89.8392 16.7282 89.8392 16.0264V5.07905C89.8392 4.79835 89.6288 4.55273 89.3483 4.55273H86.4727C86.1921 4.55273 85.9817 4.79835 85.9817 5.07905V14.1317H83.6672V5.07905C83.6672 4.79835 83.4568 4.55273 83.1762 4.55273H80.3006C80.0201 4.55273 79.8097 4.79835 79.8097 5.07905V14.1317H77.425V5.07905C77.425 4.79835 77.2146 4.55273 76.934 4.55273H74.0584C73.7779 4.55273 73.5675 4.79835 73.5675 5.07905V16.0264C73.4973 16.6931 74.0584 17.2896 74.7598 17.2896Z" fill="white"/>
<path fill-rule="evenodd" clip-rule="evenodd" d="M54.7346 4.27197C55.962 4.27197 56.979 4.44741 57.8907 4.7632C58.2064 4.86846 58.3817 5.14917 58.3817 5.50004V7.60531C58.3817 7.78074 58.3116 7.9211 58.1362 8.02636C57.9609 8.13162 57.8206 8.13162 57.6453 8.06145C56.9088 7.74566 56.0672 7.57022 55.2255 7.57022C52.8759 7.57022 51.7888 8.93864 51.7888 10.9036C51.7888 12.8685 52.911 14.2369 55.2255 14.2369C56.0672 14.2369 56.9088 14.0614 57.6453 13.7457C57.8206 13.6755 57.9609 13.6755 58.1362 13.7807C58.3116 13.886 58.3817 14.0264 58.3817 14.2018V16.3071C58.3817 16.6228 58.1713 16.9036 57.8907 17.0439C57.014 17.3597 55.962 17.5351 54.7346 17.5351C49.5795 17.5351 47.7559 14.3071 47.7559 10.9036C47.7559 7.50004 49.5795 4.27197 54.7346 4.27197Z" fill="white"/>
<path fill-rule="evenodd" clip-rule="evenodd" d="M68.9023 4.51758H71.7779C71.9533 4.51758 72.0935 4.58775 72.1987 4.7281C72.304 4.86846 72.304 5.04389 72.2338 5.21933L67.5697 16.7983C67.4645 17.079 67.184 17.2895 66.8683 17.2895H63.9927C63.8174 17.2895 63.6771 17.2193 63.5719 17.079C63.4667 16.9386 63.4667 16.7632 63.5368 16.5878L64.624 13.886H64.0979C63.1511 13.886 62.7303 13.3246 62.4848 12.693L59.4689 5.25442C59.3987 5.07898 59.4338 4.93863 59.504 4.76319C59.6092 4.62284 59.7494 4.55267 59.9248 4.55267H62.8004C63.116 4.55267 63.3966 4.7281 63.5018 5.04389L65.8513 10.8334L68.2009 5.04389C68.3061 4.69302 68.5867 4.51758 68.9023 4.51758Z" fill="white"/>
<path fill-rule="evenodd" clip-rule="evenodd" d="M92.8189 25.3248H95.9751V34.3775C95.9751 34.6582 96.1855 34.9038 96.4661 34.9038H99.3417C99.6222 34.9038 99.8326 34.6582 99.8326 34.3775V25.3248H102.989C103.27 25.3248 103.48 25.0792 103.48 24.7985V22.6231C103.48 22.3424 103.27 22.0968 102.989 22.0968H92.7839C92.5033 22.0968 92.2929 22.3424 92.2929 22.6231V24.7985C92.2929 25.0792 92.5384 25.3248 92.8189 25.3248ZM117.788 22.1318H123.434C129.15 22.1318 129.15 31.7108 123.434 31.7108H120.418V34.3775C120.418 34.6582 120.208 34.9038 119.927 34.9038H117.052C116.771 34.9038 116.561 34.6582 116.561 34.3775V23.395C116.526 22.6932 117.087 22.1318 117.788 22.1318ZM120.418 25.3248V28.5178H122.558C124.276 28.5178 124.276 25.3248 122.558 25.3248H120.418ZM108.881 25.3248H114.316C114.597 25.3248 114.807 25.0792 114.807 24.7985V22.6231C114.807 22.3424 114.597 22.0968 114.316 22.0968H106.216C105.514 22.0968 104.953 22.6582 104.953 23.3599V33.5704C104.953 34.2722 105.514 34.8336 106.216 34.8336H114.316C114.597 34.8336 114.807 34.588 114.807 34.3073V32.1318C114.807 31.8511 114.597 31.6055 114.316 31.6055H108.846V30.0266H113.615C113.896 30.0266 114.106 29.781 114.106 29.5003V27.3248C114.106 27.0441 113.896 26.7985 113.615 26.7985H108.881V25.3248ZM87.2781 21.8862C88.5055 21.8862 89.5225 22.0617 90.4343 22.3775C90.7499 22.4827 90.9252 22.7634 90.9252 23.1143V25.2196C90.9252 25.395 90.8551 25.5354 90.6798 25.6406C90.5395 25.7459 90.3641 25.7459 90.1888 25.6757C89.4524 25.3599 88.6107 25.1845 87.7691 25.1845C85.4195 25.1845 84.3324 26.5529 84.3324 28.5178C84.3324 30.4827 85.4545 31.8511 87.7691 31.8511C88.6107 31.8511 89.4524 31.6757 90.1888 31.3599C90.3641 31.2897 90.5044 31.2897 90.6798 31.395C90.82 31.5003 90.9252 31.6406 90.9252 31.8161V33.9213C90.9252 34.2371 90.7148 34.5178 90.4343 34.6582C89.5576 34.9739 88.5055 35.1494 87.2781 35.1494C82.123 35.1494 80.2995 31.9213 80.2995 28.5178C80.2995 25.1143 82.123 21.8862 87.2781 21.8862ZM70.9713 22.1318H75.951C76.2666 22.1318 76.5471 22.3424 76.6173 22.6231L80.1592 34.202C80.1943 34.3775 80.1943 34.5178 80.0891 34.6582C79.9839 34.7985 79.8436 34.8687 79.6682 34.8687H76.968C76.6524 34.8687 76.3718 34.6582 76.3017 34.3775L75.8107 32.7985H71.1115L70.6206 34.3775C70.5154 34.6932 70.2699 34.8687 69.9543 34.8687H67.254C67.0787 34.8687 66.9384 34.7985 66.8332 34.6582C66.728 34.5178 66.6929 34.3775 66.763 34.202L70.305 22.6231C70.4102 22.3424 70.6556 22.1318 70.9713 22.1318ZM74.8288 29.6055L73.4611 25.2547L72.0935 29.6055H74.8288Z" fill="white"/>
<path fill-rule="evenodd" clip-rule="evenodd" d="M59.9257 22.4826L57.4709 27.7107L54.981 22.4826C54.8758 22.2721 54.6654 22.1318 54.4199 22.1318H51.1235C50.8078 22.1318 50.5273 22.3774 50.4922 22.6932L49.335 34.3072C49.335 34.4476 49.37 34.5879 49.4752 34.6932C49.5805 34.7984 49.6857 34.8686 49.861 34.8686H52.7366C53.0522 34.8686 53.3328 34.623 53.3678 34.3072L53.964 28.2721L56.0681 32.7633C56.1733 32.9739 56.3837 33.0791 56.6292 33.0791H58.3476C58.5931 33.0791 58.8035 32.9739 58.9087 32.7633L60.9777 28.2721L61.5739 34.2721C61.6089 34.5879 61.8895 34.8335 62.2051 34.8335H65.0807C65.221 34.8335 65.3613 34.7633 65.4665 34.6581C65.5717 34.5528 65.6068 34.4125 65.6068 34.2721L64.4495 22.6581C64.4144 22.3423 64.1339 22.0967 63.8183 22.0967H60.5569C60.2413 22.1318 60.0309 22.2721 59.9257 22.4826Z" fill="white"/>
</svg>
