<svg width="125" height="120" viewBox="0 0 125 120" fill="none" xmlns="http://www.w3.org/2000/svg">
<g clip-path="url(#clip0)">
<rect x="10.6597" y="25.0215" width="103.776" height="69" rx="4" fill="#F1363E"/>
<path d="M42.6935 59.0695L47.4295 59.0695L47.4295 57.1655L42.6935 57.1655L42.6935 59.0695ZM49.1127 63.0215L57.2087 63.0215L57.2087 61.2935L51.8807 61.2935L54.1847 59.3735C56.1527 57.7415 57.0968 56.7975 57.0968 55.0375C57.0968 53.0055 55.5928 51.6615 53.4008 51.6615C51.4008 51.6615 50.3448 52.5095 49.2728 54.0135L50.6648 55.1015C51.5288 53.9815 52.2328 53.4215 53.2568 53.4215C54.2808 53.4215 55.0648 54.0615 55.0648 55.1655C55.0648 56.1735 54.5047 56.8935 52.9687 58.1895L49.1127 61.4695L49.1127 63.0215ZM63.9172 63.2135C66.8612 63.2135 68.8132 60.6215 68.8133 57.4215C68.8133 54.1895 66.8773 51.6295 63.9493 51.6295C61.0053 51.6295 59.0533 54.2215 59.0532 57.4215C59.0532 60.6535 60.9732 63.2135 63.9172 63.2135ZM63.9492 61.4375C62.2052 61.4375 61.0852 59.6295 61.0852 57.4215C61.0853 55.1655 62.1893 53.4055 63.9173 53.4055C65.6453 53.4055 66.7813 55.2135 66.7812 57.4215C66.7812 59.6615 65.6932 61.4375 63.9492 61.4375ZM73.1114 57.4215C74.6954 57.4215 75.7674 56.1095 75.7674 54.5575C75.7674 52.9895 74.7114 51.6935 73.1434 51.6935C71.5594 51.6935 70.4874 53.0055 70.4874 54.5575C70.4874 56.1255 71.5434 57.4215 73.1114 57.4215ZM71.6234 63.0215L73.2074 63.0215L81.3994 51.8215L79.8154 51.8215L71.6234 63.0215ZM79.8794 63.1495C81.4634 63.1495 82.5354 61.8375 82.5354 60.2855C82.5354 58.7175 81.4794 57.4215 79.9114 57.4215C78.3274 57.4215 77.2554 58.7335 77.2554 60.2855C77.2554 61.8535 78.3114 63.1495 79.8794 63.1495ZM73.1434 56.1895C72.4234 56.1895 71.9114 55.4695 71.9114 54.5575C71.9114 53.6615 72.3594 52.9255 73.1114 52.9255C73.8314 52.9255 74.3434 53.6615 74.3434 54.5575C74.3434 55.4535 73.8954 56.1895 73.1434 56.1895ZM79.9114 61.9175C79.1914 61.9175 78.6794 61.1975 78.6794 60.2855C78.6794 59.3895 79.1274 58.6535 79.8794 58.6535C80.5994 58.6535 81.1114 59.3895 81.1114 60.2855C81.1114 61.1815 80.6634 61.9175 79.9114 61.9175Z" fill="white"/>
</g>
<defs>
<clipPath id="clip0">
<rect width="125" height="120" fill="white"/>
</clipPath>
</defs>
</svg>
