<svg width="261" height="360" viewBox="0 0 261 360" fill="none" xmlns="http://www.w3.org/2000/svg">
<g filter="url(#filter0_f)">
<ellipse cx="144.826" cy="248.323" rx="60.8862" ry="7.79917" transform="rotate(-15.0313 144.826 248.323)" fill="#1B1D21"/>
</g>
<rect x="47" y="169.45" width="140.899" height="93.6834" rx="5.43092" transform="rotate(-30 47 169.45)" fill="#F1363E"/>
<path d="M108.134 188.35L113.703 185.135L112.41 182.896L106.841 186.111L108.134 188.35ZM118.365 188.639L127.884 183.143L126.711 181.111L120.446 184.728L121.852 180.906C123.058 177.651 123.527 175.901 122.332 173.831C120.953 171.442 118.272 170.882 115.695 172.371C113.343 173.728 112.677 175.442 112.438 177.938L114.813 178.273C115.068 176.369 115.516 175.233 116.72 174.538C117.924 173.843 119.281 174.063 120.03 175.361C120.714 176.546 120.545 177.773 119.618 180.34L117.311 186.814L118.365 188.639ZM135.903 178.814C139.364 176.816 139.9 172.443 137.727 168.68C135.533 164.88 131.519 163.184 128.076 165.172C124.615 167.171 124.079 171.543 126.251 175.306C128.445 179.106 132.441 180.813 135.903 178.814ZM134.734 176.704C132.684 177.888 130.14 176.523 128.641 173.927C127.109 171.274 127.212 168.455 129.244 167.282C131.276 166.109 133.839 167.464 135.338 170.06C136.859 172.694 136.785 175.521 134.734 176.704ZM142.781 165.762C144.644 164.687 145.014 162.417 143.96 160.592C142.896 158.748 140.774 157.941 138.93 159.006C137.068 160.081 136.698 162.351 137.752 164.176C138.816 166.02 140.938 166.827 142.781 165.762ZM144.833 173.357L146.696 172.282L148.725 153.551L146.862 154.627L144.833 173.357ZM154.628 167.903C156.49 166.828 156.86 164.557 155.807 162.732C154.742 160.889 152.621 160.082 150.777 161.146C148.914 162.222 148.545 164.492 149.598 166.317C150.663 168.161 152.784 168.968 154.628 167.903ZM141.983 164.292C141.136 164.781 140.045 164.282 139.426 163.21C138.818 162.156 138.845 160.986 139.729 160.476C140.576 159.987 141.677 160.505 142.286 161.559C142.894 162.612 142.867 163.782 141.983 164.292ZM153.829 166.433C152.982 166.922 151.892 166.422 151.273 165.35C150.664 164.297 150.691 163.127 151.576 162.617C152.422 162.128 153.524 162.646 154.132 163.699C154.74 164.753 154.713 165.922 153.829 166.433Z" fill="white"/>
<line x1="130" y1="95" x2="130" y2="46" stroke="white" stroke-width="2"/>
<line x1="160.912" y1="91.05" x2="181.405" y2="34.6585" stroke="white" stroke-width="2"/>
<line y1="-1" x2="60" y2="-1" transform="matrix(-0.341562 -0.939859 -0.939859 0.341562 100.494 91.3916)" stroke="white" stroke-width="2"/>
<line x1="130" y1="320" x2="130" y2="271" stroke="white" stroke-width="2"/>
<line x1="73.0601" y1="323.05" x2="93.5538" y2="266.658" stroke="white" stroke-width="2"/>
<line y1="-1" x2="60" y2="-1" transform="matrix(-0.341562 -0.939859 -0.939859 0.341562 188.345 323.392)" stroke="white" stroke-width="2"/>
<defs>
<filter id="filter0_f" x="35.9873" y="180.824" width="217.677" height="134.998" filterUnits="userSpaceOnUse" color-interpolation-filters="sRGB">
<feFlood flood-opacity="0" result="BackgroundImageFix"/>
<feBlend mode="normal" in="SourceGraphic" in2="BackgroundImageFix" result="shape"/>
<feGaussianBlur stdDeviation="25" result="effect1_foregroundBlur"/>
</filter>
</defs>
</svg>
