<svg width="1600" height="419" viewBox="0 0 1600 419" fill="none" xmlns="http://www.w3.org/2000/svg">
<path d="M-11.5 32C53 -3.49999 216.3 -39.4001 277.5 119C338.7 277.4 450.333 255 498.5 224C546.167 215.167 615.483 254.135 575 317.5C563.5 335.5 558.5 317.5 560.5 305.5C564.702 280.289 600.064 266.839 609 314C618 361.5 682.5 419.5 833.5 413.5C890.5 429 975 404 1003 332C1038 242 1128 214 1164.5 224C1201 234 1264.5 310 1301 277C1337.5 244 1243 246 1258 289C1273 332 1411 375.5 1411 289C1411 202.5 1394.5 146 1361 132.5C1327.5 119 1311.5 4.49992 1451 10.9999C1590.5 17.4999 1442.5 82.4999 1634 214" stroke="white"/>
<rect x="197" y="138.45" width="140.899" height="93.6834" rx="5.43092" transform="rotate(-30 197 138.45)" fill="#F1363E"/>
<path d="M258.134 157.35L263.703 154.135L262.41 151.896L256.841 155.111L258.134 157.35ZM268.365 157.639L277.884 152.143L276.711 150.111L270.446 153.728L271.852 149.906C273.058 146.651 273.527 144.901 272.332 142.831C270.953 140.442 268.272 139.882 265.695 141.371C263.343 142.728 262.677 144.442 262.438 146.938L264.813 147.273C265.068 145.369 265.516 144.233 266.72 143.538C267.924 142.843 269.281 143.063 270.03 144.361C270.714 145.546 270.545 146.773 269.618 149.34L267.311 155.814L268.365 157.639ZM285.903 147.814C289.364 145.816 289.9 141.443 287.727 137.68C285.533 133.88 281.519 132.184 278.076 134.172C274.615 136.171 274.079 140.543 276.251 144.306C278.445 148.106 282.441 149.813 285.903 147.814ZM284.734 145.704C282.684 146.888 280.14 145.523 278.641 142.927C277.109 140.274 277.212 137.455 279.244 136.282C281.276 135.109 283.839 136.464 285.338 139.06C286.859 141.694 286.785 144.521 284.734 145.704ZM292.781 134.762C294.644 133.687 295.014 131.417 293.96 129.592C292.896 127.748 290.774 126.941 288.93 128.006C287.068 129.081 286.698 131.351 287.752 133.176C288.816 135.02 290.938 135.827 292.781 134.762ZM294.833 142.357L296.696 141.282L298.725 122.551L296.862 123.627L294.833 142.357ZM304.628 136.903C306.49 135.828 306.86 133.557 305.807 131.732C304.742 129.889 302.621 129.082 300.777 130.146C298.914 131.222 298.545 133.492 299.598 135.317C300.663 137.161 302.784 137.968 304.628 136.903ZM291.983 133.292C291.136 133.781 290.045 133.282 289.426 132.21C288.818 131.156 288.845 129.986 289.729 129.476C290.576 128.987 291.677 129.505 292.286 130.559C292.894 131.612 292.867 132.782 291.983 133.292ZM303.829 135.433C302.982 135.922 301.892 135.422 301.273 134.35C300.664 133.297 300.691 132.127 301.576 131.617C302.422 131.128 303.524 131.646 304.132 132.699C304.74 133.753 304.713 134.922 303.829 135.433Z" fill="white"/>
<rect x="1421.86" y="121.132" width="140.899" height="93.6834" rx="5.43092" transform="rotate(150 1421.86 121.132)" fill="#F1363E"/>
<path d="M1314.13 129.35L1319.7 126.135L1318.41 123.896L1312.84 127.111L1314.13 129.35ZM1324.36 129.639L1333.88 124.143L1332.71 122.111L1326.45 125.728L1327.85 121.906C1329.06 118.651 1329.53 116.901 1328.33 114.831C1326.95 112.442 1324.27 111.882 1321.69 113.371C1319.34 114.728 1318.68 116.442 1318.44 118.938L1320.81 119.273C1321.07 117.369 1321.52 116.233 1322.72 115.538C1323.92 114.843 1325.28 115.063 1326.03 116.361C1326.71 117.546 1326.54 118.773 1325.62 121.34L1323.31 127.814L1324.36 129.639ZM1341.9 119.814C1345.36 117.816 1345.9 113.443 1343.73 109.68C1341.53 105.88 1337.52 104.184 1334.08 106.172C1330.61 108.171 1330.08 112.543 1332.25 116.306C1334.45 120.106 1338.44 121.813 1341.9 119.814ZM1340.73 117.704C1338.68 118.888 1336.14 117.523 1334.64 114.927C1333.11 112.274 1333.21 109.455 1335.24 108.282C1337.28 107.109 1339.84 108.464 1341.34 111.06C1342.86 113.694 1342.79 116.521 1340.73 117.704ZM1348.78 106.762C1350.64 105.687 1351.01 103.417 1349.96 101.592C1348.9 99.7481 1346.77 98.9412 1344.93 100.006C1343.07 101.081 1342.7 103.351 1343.75 105.176C1344.82 107.02 1346.94 107.827 1348.78 106.762ZM1350.83 114.357L1352.7 113.282L1354.72 94.5514L1352.86 95.6267L1350.83 114.357ZM1360.63 108.903C1362.49 107.828 1362.86 105.557 1361.81 103.732C1360.74 101.889 1358.62 101.082 1356.78 102.146C1354.91 103.222 1354.54 105.492 1355.6 107.317C1356.66 109.161 1358.78 109.968 1360.63 108.903ZM1347.98 105.292C1347.14 105.781 1346.05 105.282 1345.43 104.21C1344.82 103.156 1344.84 101.986 1345.73 101.476C1346.58 100.987 1347.68 101.505 1348.29 102.559C1348.89 103.612 1348.87 104.782 1347.98 105.292ZM1359.83 107.433C1358.98 107.922 1357.89 107.422 1357.27 106.35C1356.66 105.297 1356.69 104.127 1357.58 103.617C1358.42 103.128 1359.52 103.646 1360.13 104.699C1360.74 105.753 1360.71 106.922 1359.83 107.433Z" fill="white"/>
<rect x="460" y="220.462" width="56.9242" height="37.8487" rx="2.19413" transform="rotate(-30 460 220.462)" fill="#F1363E"/>
<path d="M484.764 228.212L487.014 226.913L486.492 226.009L484.242 227.308L484.764 228.212ZM488.898 228.329L492.744 226.109L492.27 225.288L489.739 226.749L490.307 225.205C490.794 223.89 490.983 223.183 490.501 222.347C489.943 221.381 488.86 221.155 487.819 221.757C486.869 222.305 486.6 222.998 486.503 224.006L487.463 224.141C487.566 223.372 487.747 222.913 488.233 222.632C488.72 222.351 489.268 222.44 489.571 222.965C489.847 223.444 489.778 223.939 489.404 224.976L488.472 227.592L488.898 228.329ZM495.983 224.36C497.382 223.552 497.598 221.786 496.72 220.266C495.834 218.73 494.212 218.045 492.821 218.848C491.423 219.656 491.206 221.422 492.084 222.942C492.97 224.478 494.585 225.167 495.983 224.36ZM495.511 223.507C494.683 223.986 493.655 223.434 493.049 222.385C492.43 221.313 492.472 220.175 493.293 219.701C494.114 219.227 495.15 219.774 495.755 220.823C496.369 221.887 496.34 223.029 495.511 223.507ZM498.762 219.087C499.515 218.652 499.664 217.735 499.238 216.998C498.808 216.253 497.951 215.927 497.206 216.357C496.454 216.791 496.304 217.709 496.73 218.446C497.16 219.191 498.017 219.517 498.762 219.087ZM499.591 222.155L500.344 221.721L501.163 214.153L500.411 214.588L499.591 222.155ZM503.548 219.952C504.301 219.517 504.45 218.6 504.024 217.863C503.594 217.118 502.737 216.792 501.992 217.222C501.24 217.656 501.091 218.574 501.516 219.311C501.946 220.056 502.803 220.382 503.548 219.952ZM498.439 218.493C498.097 218.69 497.657 218.489 497.407 218.055C497.161 217.63 497.172 217.157 497.529 216.951C497.871 216.754 498.316 216.963 498.562 217.388C498.808 217.814 498.797 218.287 498.439 218.493ZM503.226 219.358C502.884 219.555 502.443 219.353 502.193 218.92C501.947 218.495 501.958 218.022 502.315 217.816C502.657 217.618 503.102 217.828 503.348 218.253C503.594 218.679 503.583 219.151 503.226 219.358Z" fill="white"/>
<rect x="1201.22" y="220.778" width="56.9242" height="37.8487" rx="2.19413" transform="rotate(150 1201.22 220.778)" fill="#F1363E"/>
<path d="M1157.76 224.212L1160.01 222.913L1159.49 222.009L1157.24 223.308L1157.76 224.212ZM1161.9 224.329L1165.74 222.109L1165.27 221.288L1162.74 222.749L1163.31 221.205C1163.79 219.89 1163.98 219.183 1163.5 218.347C1162.94 217.381 1161.86 217.155 1160.82 217.757C1159.87 218.305 1159.6 218.998 1159.5 220.006L1160.46 220.141C1160.57 219.372 1160.75 218.913 1161.23 218.632C1161.72 218.351 1162.27 218.44 1162.57 218.965C1162.85 219.444 1162.78 219.939 1162.4 220.976L1161.47 223.592L1161.9 224.329ZM1168.98 220.36C1170.38 219.552 1170.6 217.786 1169.72 216.266C1168.83 214.73 1167.21 214.045 1165.82 214.848C1164.42 215.656 1164.21 217.422 1165.08 218.942C1165.97 220.478 1167.58 221.167 1168.98 220.36ZM1168.51 219.507C1167.68 219.986 1166.65 219.434 1166.05 218.385C1165.43 217.313 1165.47 216.175 1166.29 215.701C1167.11 215.227 1168.15 215.774 1168.76 216.823C1169.37 217.887 1169.34 219.029 1168.51 219.507ZM1171.76 215.087C1172.51 214.652 1172.66 213.735 1172.24 212.998C1171.81 212.253 1170.95 211.927 1170.21 212.357C1169.45 212.791 1169.3 213.709 1169.73 214.446C1170.16 215.191 1171.02 215.517 1171.76 215.087ZM1172.59 218.155L1173.34 217.721L1174.16 210.153L1173.41 210.588L1172.59 218.155ZM1176.55 215.952C1177.3 215.517 1177.45 214.6 1177.02 213.863C1176.59 213.118 1175.74 212.792 1174.99 213.222C1174.24 213.656 1174.09 214.574 1174.52 215.311C1174.95 216.056 1175.8 216.382 1176.55 215.952ZM1171.44 214.493C1171.1 214.69 1170.66 214.489 1170.41 214.055C1170.16 213.63 1170.17 213.157 1170.53 212.951C1170.87 212.754 1171.32 212.963 1171.56 213.388C1171.81 213.814 1171.8 214.287 1171.44 214.493ZM1176.23 215.358C1175.88 215.555 1175.44 215.353 1175.19 214.92C1174.95 214.495 1174.96 214.022 1175.32 213.816C1175.66 213.618 1176.1 213.828 1176.35 214.253C1176.59 214.679 1176.58 215.151 1176.23 215.358Z" fill="white"/>
</svg>
