<svg width="299" height="487" viewBox="0 0 299 487" fill="none" xmlns="http://www.w3.org/2000/svg">
<g filter="url(#filter0_d)">
<path d="M275.146 124.061C196.333 84.3476 103.725 82.6842 23.5364 119.542L112.758 325.654C112.758 325.654 130.443 319.716 144.65 319.654C159.954 319.586 178.352 328.154 178.352 328.154L275.146 124.061Z" stroke="white" stroke-width="20"/>
<path d="M275.146 124.061C196.333 84.3476 103.725 82.6842 23.5364 119.542L112.758 325.654C112.758 325.654 130.443 319.716 144.65 319.654C159.954 319.586 178.352 328.154 178.352 328.154L275.146 124.061Z" stroke="url(#paint0_linear)" stroke-width="20"/>
</g>
<g clip-path="url(#clip0)">
<circle cx="147.649" cy="20.9995" r="12" fill="#EC1C24"/>
<path d="M148.149 -0.000488281C136.319 -0.000488281 126.704 9.61416 126.704 21.4448C126.704 25.4479 127.812 29.344 129.921 32.7037L146.696 60.1554C146.982 60.62 147.411 60.9061 147.911 60.9776C148.59 61.0847 149.341 60.7989 149.734 60.1198L166.557 32.4177C168.558 29.1295 169.595 25.3051 169.595 21.4448C169.595 9.61416 159.98 -0.000488281 148.149 -0.000488281ZM148.149 32.1675C142.145 32.1675 137.427 27.3065 137.427 21.4448C137.427 15.5472 142.252 10.7222 148.149 10.7222C154.047 10.7222 158.872 15.5472 158.872 21.4448C158.872 27.2708 154.225 32.1675 148.149 32.1675Z" fill="#EC1C24"/>
<path d="M148.149 -0.000488281V10.7222C154.047 10.7222 158.872 15.5472 158.872 21.4448C158.872 27.2708 154.225 32.1675 148.149 32.1675V60.9984C148.759 61.0126 149.386 60.7202 149.734 60.1198L166.557 32.4177C168.558 29.1295 169.595 25.3051 169.595 21.4448C169.595 9.61416 159.98 -0.000488281 148.149 -0.000488281Z" fill="#EC1C24"/>
</g>
<g filter="url(#filter1_d)">
<circle cx="143.732" cy="392.662" r="84.146" fill="white"/>
</g>
<path d="M106.85 419.049C105.181 419.445 103.504 419.445 101.821 419.049C101.396 417.478 100.809 415.844 100.059 414.147C99.4793 414.868 98.8639 415.561 98.2131 416.226V419.049C96.6994 419.431 95.1856 419.431 93.6718 419.049V404.703C95.1856 404.321 96.6994 404.321 98.2131 404.703V411.176C99.5996 409.266 100.703 407.108 101.524 404.703C103.066 404.321 104.608 404.321 106.15 404.703C105.372 406.995 104.304 409.138 102.945 411.133C104.558 413.609 105.86 416.248 106.85 419.049ZM108.908 405.361C110.379 404.682 112.077 404.343 114.001 404.343C115.812 404.343 117.219 404.795 118.224 405.701C119.214 406.62 119.709 407.908 119.709 409.563C119.709 411.232 119.292 412.527 118.457 413.446C117.608 414.366 116.42 414.826 114.892 414.826C114.34 414.826 113.859 414.769 113.449 414.656V419.049C111.935 419.417 110.422 419.417 108.908 419.049V405.361ZM115.338 409.372C115.338 408.353 114.942 407.844 114.149 407.844C113.881 407.844 113.626 407.894 113.385 407.993V411.006C113.569 411.063 113.782 411.091 114.022 411.091C114.899 411.091 115.338 410.518 115.338 409.372ZM134.146 404.703C132.647 409.612 130.716 414.394 128.353 419.049C126.684 419.388 125.014 419.388 123.345 419.049C124.25 417.747 125 416.446 125.594 415.144V415.123C125.099 415.08 124.689 415.024 124.364 414.953C122.737 411.544 121.463 408.127 120.544 404.703C122.157 404.392 123.769 404.392 125.382 404.703C125.863 407.023 126.493 409.287 127.271 411.494H127.292C128.212 409.032 128.947 406.769 129.499 404.703C131.041 404.378 132.59 404.378 134.146 404.703ZM147.814 404.555C148.21 405.984 148.21 407.405 147.814 408.82H144.313V419.049C142.785 419.431 141.25 419.431 139.708 419.049V408.82H136.164C135.81 407.405 135.81 405.984 136.164 404.555H147.814ZM162.37 419.049C160.843 419.417 159.322 419.417 157.808 419.049V413.298C157.808 412.675 157.829 412.173 157.872 411.791C156.513 414.14 155.382 416.559 154.476 419.049C152.892 419.431 151.314 419.431 149.744 419.049V404.703C151.272 404.307 152.793 404.307 154.306 404.703V410.454C154.306 411.077 154.292 411.579 154.264 411.961C155.184 409.414 156.315 406.995 157.659 404.703C159.23 404.335 160.8 404.335 162.37 404.703V419.049ZM176.504 404.555C176.9 405.984 176.9 407.405 176.504 408.82H173.002V419.049C171.475 419.431 169.94 419.431 168.398 419.049V408.82H164.854C164.5 407.405 164.5 405.984 164.854 404.555H176.504ZM185.415 408.948C186.816 408.948 187.905 409.393 188.684 410.284C189.447 411.176 189.829 412.435 189.829 414.062C189.829 415.689 189.447 416.955 188.684 417.86C187.905 418.752 186.816 419.197 185.415 419.197H178.519V404.703C180.032 404.321 181.546 404.321 183.06 404.703V408.948H185.415ZM184.185 415.462C184.892 415.462 185.246 414.981 185.246 414.019C185.246 413.057 184.892 412.576 184.185 412.576H183.06V415.462H184.185ZM192.581 404.703C194.264 404.279 195.948 404.279 197.631 404.703C197.617 407.731 197.334 410.765 196.783 413.807C195.665 413.623 194.547 413.623 193.43 413.807C192.878 410.765 192.595 407.731 192.581 404.703ZM192.963 414.868C194.392 414.472 195.821 414.472 197.25 414.868C197.631 416.283 197.631 417.698 197.25 419.112C195.821 419.509 194.392 419.509 192.963 419.112C192.581 417.698 192.581 416.283 192.963 414.868Z" fill="#EC1C24"/>
<path fill-rule="evenodd" clip-rule="evenodd" d="M143.819 395.983C156.097 395.983 166.05 386.069 166.05 373.839C166.05 361.61 156.097 351.696 143.819 351.696C131.542 351.696 121.589 361.61 121.589 373.839C121.589 386.069 131.542 395.983 143.819 395.983Z" fill="#EC1C24"/>
<path fill-rule="evenodd" clip-rule="evenodd" d="M146.055 357.203C146.288 358.019 146.288 358.912 146.055 359.728C145.978 359.961 145.822 360.155 145.551 360.233C144.735 360.466 143.842 360.466 143.027 360.233C142.794 360.155 142.6 360 142.522 359.728C142.289 358.912 142.289 358.019 142.522 357.203C142.6 356.97 142.755 356.775 143.027 356.698C143.842 356.465 144.735 356.465 145.551 356.698C145.822 356.775 145.978 356.97 146.055 357.203ZM130.835 363.846C131.65 364.04 132.427 364.506 132.971 365.128C133.126 365.322 133.204 365.555 133.126 365.788C132.932 366.604 132.466 367.381 131.845 367.925C131.65 368.08 131.418 368.158 131.185 368.08C130.369 367.886 129.593 367.42 129.049 366.798C128.894 366.604 128.816 366.371 128.894 366.138C129.088 365.322 129.554 364.545 130.175 364.001C130.33 363.846 130.602 363.807 130.835 363.846ZM137.552 358.524C138.173 359.106 138.601 359.883 138.795 360.699C138.834 360.932 138.795 361.204 138.601 361.36C138.018 361.981 137.242 362.409 136.426 362.603C136.193 362.642 135.921 362.603 135.766 362.409C135.145 361.826 134.718 361.049 134.524 360.233C134.485 360 134.524 359.728 134.718 359.573C135.3 358.951 136.077 358.524 136.892 358.329C137.164 358.291 137.397 358.368 137.552 358.524ZM159.567 366.837C158.985 367.459 158.247 367.925 157.432 368.119C157.199 368.197 156.927 368.119 156.772 367.964C156.15 367.381 155.685 366.643 155.49 365.827C155.413 365.594 155.49 365.322 155.646 365.167C156.228 364.545 156.966 364.079 157.781 363.885C158.014 363.807 158.286 363.885 158.441 364.04C159.062 364.623 159.529 365.361 159.723 366.177C159.8 366.41 159.761 366.643 159.567 366.837ZM154.093 360.233C153.898 361.049 153.471 361.826 152.85 362.409C152.656 362.564 152.423 362.642 152.19 362.603C151.375 362.409 150.598 361.981 150.016 361.36C149.86 361.165 149.783 360.932 149.822 360.699C150.016 359.883 150.443 359.106 151.064 358.524C151.258 358.368 151.491 358.291 151.724 358.329C152.54 358.524 153.316 358.951 153.898 359.573C154.054 359.767 154.131 360 154.093 360.233Z" fill="#FAFAF9"/>
<path fill-rule="evenodd" clip-rule="evenodd" d="M145.24 378.22C146.676 376.044 147.686 373.558 148.035 370.839C148.035 370.722 148.113 370.644 148.19 370.606C148.268 370.567 148.385 370.567 148.462 370.644C149.472 371.421 150.598 372.004 151.84 372.393C151.995 372.431 152.112 372.587 152.073 372.781C151.452 375.889 150.171 378.764 148.346 381.25C148.307 381.328 148.19 381.367 148.113 381.406C147.996 381.406 147.919 381.406 147.841 381.328C146.87 380.59 146.016 379.696 145.24 378.764C145.162 378.608 145.123 378.414 145.24 378.22Z" fill="#FAFAF9"/>
<path fill-rule="evenodd" clip-rule="evenodd" d="M144.037 385.329C140.231 382.182 137.514 377.793 136.504 372.781C136.465 372.626 136.582 372.47 136.737 372.393C137.98 372.004 139.105 371.421 140.115 370.644C140.193 370.567 140.309 370.567 140.387 370.606C140.464 370.644 140.542 370.722 140.542 370.839C141.163 375.462 143.609 379.541 147.104 382.26C147.182 382.338 147.22 382.416 147.22 382.493C147.22 382.61 147.22 382.688 147.143 382.765C146.327 383.698 145.473 384.552 144.541 385.329C144.425 385.485 144.192 385.485 144.037 385.329Z" fill="#FAFAF9"/>
<path fill-rule="evenodd" clip-rule="evenodd" d="M159.956 374.413C161.043 373.791 161.625 372.548 161.431 371.344C161.431 371.266 161.354 371.188 161.276 371.15C161.198 371.111 161.082 371.111 161.004 371.188C158.83 372.587 156.228 373.17 153.666 372.82C153.511 372.781 153.355 372.898 153.316 373.092C152.928 374.996 152.307 376.821 151.491 378.531C151.453 378.609 151.453 378.725 151.491 378.803C151.53 378.88 151.608 378.958 151.686 378.997C153.743 379.89 155.995 380.434 158.325 380.473C158.48 380.473 158.636 380.396 158.713 380.24C159.451 378.414 159.917 376.472 159.956 374.413Z" fill="#FAFAF9"/>
<path fill-rule="evenodd" clip-rule="evenodd" d="M147.57 369.829C148.385 369.712 155.801 368.391 153.161 366.294C150.948 364.507 148.385 363.147 145.551 362.331C144.696 362.098 143.881 362.098 143.027 362.331C140.231 363.147 137.63 364.507 135.417 366.294C132.776 368.43 140.192 369.712 141.008 369.829C141.59 371.422 142.794 373.597 144.269 373.597C145.784 373.597 147.026 371.422 147.57 369.829Z" fill="#FAFAF9"/>
<path fill-rule="evenodd" clip-rule="evenodd" d="M129.942 380.201C129.166 378.414 128.7 376.433 128.661 374.374C127.574 373.752 127.03 372.509 127.224 371.305C127.224 371.227 127.302 371.149 127.38 371.11C127.457 371.072 127.574 371.072 127.651 371.149C129.826 372.587 132.427 373.131 134.99 372.781C135.145 372.742 135.3 372.859 135.339 373.053C135.727 374.956 136.349 376.782 137.164 378.492C137.203 378.569 137.203 378.686 137.164 378.764C137.125 378.841 137.048 378.919 136.97 378.958C134.912 379.851 132.66 380.395 130.33 380.434C130.175 380.473 130.02 380.356 129.942 380.201Z" fill="#FAFAF9"/>
<path fill-rule="evenodd" clip-rule="evenodd" d="M151.763 389.602C149.511 390.69 146.987 391.273 144.347 391.273C143.92 391.273 143.493 391.273 143.066 391.234C142.988 391.234 142.91 391.195 142.833 391.117C142.794 391.04 142.755 390.962 142.794 390.884C143.92 386.533 147.88 383.348 152.578 383.348C154.559 383.348 155.529 384.28 155.529 385.523C155.529 387.077 154.287 388.398 151.763 389.602Z" fill="#FAFAF9"/>
<path fill-rule="evenodd" clip-rule="evenodd" d="M136.892 389.603C138.212 390.224 139.649 390.729 141.163 391.001C141.357 391.04 141.513 390.923 141.551 390.729C141.901 389.331 142.522 388.01 143.337 386.844C143.454 386.689 143.454 386.456 143.299 386.339C141.474 384.475 138.911 383.309 136.077 383.309C134.097 383.309 133.126 384.241 133.126 385.485C133.087 387.077 134.33 388.398 136.892 389.603Z" fill="#FAFAF9"/>
<defs>
<filter id="filter0_d" x="0.474609" y="77.0405" width="297.891" height="278.37" filterUnits="userSpaceOnUse" color-interpolation-filters="sRGB">
<feFlood flood-opacity="0" result="BackgroundImageFix"/>
<feColorMatrix in="SourceAlpha" type="matrix" values="0 0 0 0 0 0 0 0 0 0 0 0 0 0 0 0 0 0 127 0"/>
<feOffset dy="4"/>
<feGaussianBlur stdDeviation="5"/>
<feColorMatrix type="matrix" values="0 0 0 0 0.105882 0 0 0 0 0.113725 0 0 0 0 0.129412 0 0 0 0.5 0"/>
<feBlend mode="normal" in2="BackgroundImageFix" result="effect1_dropShadow"/>
<feBlend mode="normal" in="SourceGraphic" in2="effect1_dropShadow" result="shape"/>
</filter>
<filter id="filter1_d" x="49.5859" y="298.516" width="188.292" height="188.292" filterUnits="userSpaceOnUse" color-interpolation-filters="sRGB">
<feFlood flood-opacity="0" result="BackgroundImageFix"/>
<feColorMatrix in="SourceAlpha" type="matrix" values="0 0 0 0 0 0 0 0 0 0 0 0 0 0 0 0 0 0 127 0"/>
<feOffset/>
<feGaussianBlur stdDeviation="5"/>
<feColorMatrix type="matrix" values="0 0 0 0 0.105882 0 0 0 0 0.113725 0 0 0 0 0.129412 0 0 0 0.3 0"/>
<feBlend mode="normal" in2="BackgroundImageFix" result="effect1_dropShadow"/>
<feBlend mode="normal" in="SourceGraphic" in2="effect1_dropShadow" result="shape"/>
</filter>
<linearGradient id="paint0_linear" x1="151.15" y1="318.154" x2="142.133" y2="112.857" gradientUnits="userSpaceOnUse">
<stop stop-color="white"/>
<stop offset="1" stop-color="#EC1C24"/>
</linearGradient>
<clipPath id="clip0">
<rect width="61" height="61" fill="white" transform="translate(117.649 -0.000488281)"/>
</clipPath>
</defs>
</svg>
